<?xml version="1.0" standalone="no"?>
<!DOCTYPE svg PUBLIC "-//W3C//DTD SVG 20010904//EN"
 "http://www.w3.org/TR/2001/REC-SVG-20010904/DTD/svg10.dtd">
<svg version="1.0" xmlns="http://www.w3.org/2000/svg"
 width="1814.000000pt" height="2221.000000pt" viewBox="0 0 1814.000000 2221.000000"
 preserveAspectRatio="xMidYMid meet">

<g transform="translate(0.000000,2221.000000) scale(0.100000,-0.100000)"
fill="#000000" stroke="none">
<path d="M7759 22105 c-4 -3 -61 -6 -127 -7 -98 -1 -126 -4 -148 -19 -17 -11
-38 -16 -53 -13 -18 4 -38 -3 -66 -22 -22 -15 -74 -37 -116 -50 -42 -12 -89
-29 -105 -37 -16 -8 -45 -18 -64 -22 -19 -4 -60 -20 -91 -36 -31 -16 -60 -29
-65 -29 -5 0 -26 -11 -46 -25 -20 -14 -46 -25 -57 -25 -11 0 -23 -4 -26 -10
-3 -5 -49 -30 -100 -55 -52 -25 -98 -52 -102 -60 -5 -8 -42 -39 -83 -69 -41
-30 -91 -69 -110 -86 -19 -16 -73 -60 -120 -97 -135 -106 -744 -716 -787 -788
-19 -33 -57 -80 -84 -104 -28 -24 -61 -64 -74 -90 -13 -25 -49 -71 -80 -101
-30 -30 -65 -72 -76 -93 -11 -21 -35 -58 -54 -83 -19 -25 -35 -52 -35 -61 0
-8 -16 -29 -35 -45 -33 -30 -64 -93 -51 -105 3 -3 -6 -29 -21 -57 -39 -75 -39
-75 -72 -175 -21 -62 -31 -112 -31 -152 0 -34 -9 -86 -21 -122 -19 -56 -21
-75 -14 -212 5 -112 13 -180 35 -270 15 -66 38 -169 50 -230 12 -60 35 -146
52 -190 16 -44 45 -125 64 -180 20 -55 47 -120 62 -145 14 -25 47 -87 73 -139
26 -52 61 -109 78 -127 17 -18 31 -41 31 -52 0 -10 11 -36 25 -56 14 -20 25
-43 25 -50 0 -7 9 -22 20 -34 17 -18 20 -35 20 -116 0 -52 4 -97 9 -100 17
-11 39 5 45 34 3 16 26 50 51 77 41 42 45 50 36 71 -15 32 -16 30 29 48 38 16
51 36 30 49 -5 3 -10 15 -10 26 0 12 -14 28 -36 41 l-37 22 38 13 c30 10 44
11 65 1 36 -16 61 -61 53 -98 -5 -27 -3 -30 19 -30 47 0 143 23 162 39 14 12
20 13 23 4 3 -7 18 -13 34 -13 22 0 30 6 35 25 4 16 20 33 42 44 34 17 39 18
70 3 32 -16 162 -176 162 -201 0 -30 42 -126 74 -170 20 -27 36 -55 36 -64 0
-30 52 -194 82 -260 17 -37 31 -76 30 -85 0 -9 4 -42 10 -72 8 -45 17 -61 46
-86 l37 -32 3 -190 3 -190 -46 -32 c-25 -17 -60 -36 -78 -42 -17 -6 -34 -15
-37 -19 -3 -4 -29 -10 -59 -13 -30 -3 -68 -13 -84 -21 -17 -8 -36 -15 -44 -15
-7 0 -13 -3 -13 -8 0 -4 -17 -6 -38 -4 -31 3 -38 8 -38 24 1 16 -18 31 -81 64
-98 51 -165 106 -235 194 -72 90 -120 140 -135 140 -19 0 -16 -8 13 -49 20
-28 15 -25 -22 14 -27 28 -74 79 -104 114 -30 35 -60 69 -65 75 -67 74 -98
172 -114 361 l-9 110 1 -161 c2 -138 4 -163 20 -178 9 -10 17 -23 17 -31 0
-30 74 -156 103 -177 35 -24 56 -50 72 -85 6 -13 74 -90 153 -173 105 -110
161 -160 210 -189 37 -21 86 -59 109 -84 23 -25 48 -47 54 -49 9 -3 9 -15 2
-43 -7 -31 -5 -55 9 -108 31 -116 263 -531 345 -619 27 -29 27 -18 8 -167 -2
-18 -8 -38 -13 -45 -5 -6 -17 -36 -26 -67 -8 -31 -25 -67 -36 -81 -25 -33 -79
-58 -124 -58 -19 0 -59 -9 -88 -19 -29 -11 -67 -22 -85 -26 -17 -3 -37 -13
-44 -21 -6 -8 -25 -14 -41 -14 -48 0 -77 -22 -229 -177 -138 -139 -150 -154
-198 -252 -87 -176 -162 -261 -228 -261 -24 0 -45 -8 -60 -22 -16 -15 -40 -23
-78 -26 -31 -2 -58 -8 -61 -13 -3 -5 -16 -9 -29 -9 -13 0 -26 -4 -29 -9 -3 -5
-32 -12 -63 -16 -32 -3 -83 -18 -113 -32 -30 -13 -90 -38 -134 -54 -89 -32
-203 -92 -226 -119 -8 -9 -31 -22 -50 -28 -74 -25 -309 -174 -417 -264 -104
-88 -171 -166 -304 -355 -55 -80 -133 -186 -172 -236 -40 -51 -91 -124 -114
-162 -23 -39 -71 -103 -108 -144 -37 -41 -92 -108 -123 -150 -31 -42 -81 -103
-113 -136 -31 -33 -74 -87 -95 -120 -22 -33 -85 -125 -140 -205 -56 -80 -105
-156 -109 -170 -4 -14 -29 -47 -55 -75 -27 -27 -56 -66 -67 -87 -10 -20 -42
-85 -72 -145 -30 -59 -62 -120 -72 -135 -12 -16 -19 -43 -19 -72 0 -25 -4 -46
-8 -46 -22 0 -42 -62 -42 -130 0 -57 -4 -77 -20 -97 -19 -25 -20 -41 -20 -360
0 -301 2 -336 18 -360 14 -22 18 -58 23 -193 4 -144 8 -170 26 -200 16 -27 22
-58 26 -135 4 -81 13 -124 45 -225 22 -69 52 -181 67 -250 30 -142 63 -260 94
-340 13 -32 24 -89 28 -135 3 -54 13 -96 29 -130 13 -27 46 -135 73 -240 57
-218 91 -316 161 -459 28 -55 68 -162 91 -236 46 -152 89 -251 196 -456 40
-78 86 -180 102 -227 16 -47 41 -105 55 -129 14 -23 43 -86 64 -138 44 -104
265 -554 284 -577 6 -8 14 -52 16 -97 4 -70 1 -89 -17 -124 -11 -23 -21 -59
-21 -80 0 -75 -49 -198 -126 -320 -19 -29 -38 -71 -43 -94 -5 -23 -17 -45 -25
-50 -9 -5 -16 -15 -16 -23 0 -7 -4 -15 -10 -17 -5 -1 -16 -37 -24 -79 -8 -42
-30 -118 -50 -169 -27 -72 -32 -98 -24 -113 12 -24 17 -19 64 72 21 40 46 76
56 80 10 4 42 4 71 1 l52 -5 12 -90 c6 -49 12 -127 12 -173 1 -80 0 -85 -30
-114 -27 -28 -34 -30 -78 -25 -26 3 -65 2 -87 -3 -32 -8 -41 -6 -52 8 -12 15
-13 15 -19 -8 l-7 -25 -7 25 -7 25 -1 -27 c-1 -14 4 -28 9 -30 6 -2 19 -46 28
-99 14 -79 23 -102 50 -134 82 -99 98 -197 48 -290 -31 -58 -47 -84 -62 -101
-15 -17 -54 -217 -54 -276 0 -27 -4 -48 -10 -48 -5 0 -10 -8 -10 -18 0 -10 -4
-22 -9 -27 -16 -17 -51 -145 -51 -186 0 -22 7 -56 16 -77 13 -32 14 -49 3
-131 -8 -67 -10 -168 -5 -343 6 -226 5 -252 -11 -286 -15 -31 -18 -65 -18
-217 l1 -180 38 -100 c30 -80 35 -103 26 -120 -6 -11 -47 -36 -91 -55 -45 -19
-98 -50 -119 -68 -21 -17 -46 -32 -56 -32 -9 0 -37 -20 -61 -45 -23 -25 -49
-45 -57 -45 -8 0 -18 -5 -21 -10 -4 -6 -11 -7 -17 -4 -7 4 -8 2 -4 -4 4 -7 1
-12 -9 -12 -9 0 -13 -4 -10 -10 3 -5 -2 -10 -11 -10 -10 0 -15 -3 -11 -6 10
-10 -52 -67 -94 -86 -22 -10 -71 -47 -107 -82 -37 -35 -77 -67 -90 -71 -31 -9
-478 -457 -501 -503 -11 -20 -34 -50 -51 -67 -48 -44 -131 -150 -185 -235 -26
-41 -60 -88 -76 -105 -15 -16 -35 -47 -44 -68 -8 -20 -33 -54 -55 -73 -23 -21
-55 -67 -76 -111 -20 -41 -47 -87 -59 -101 -41 -49 -95 -141 -95 -161 0 -11
-6 -26 -13 -33 -6 -7 -57 -103 -111 -213 -54 -110 -106 -208 -114 -217 -14
-17 340 -18 7414 -18 l7429 0 -156 158 c-86 86 -176 184 -200 217 -24 33 -66
84 -93 114 l-51 53 -3 135 c-4 119 -2 140 17 183 15 34 21 70 21 120 0 43 7
93 19 128 16 46 20 93 23 247 2 156 6 196 21 225 9 19 17 49 17 68 0 59 31 96
133 157 42 25 70 35 100 35 24 0 60 9 82 20 22 11 51 20 65 20 14 0 41 5 60
10 19 6 76 15 126 19 107 11 182 40 223 87 16 18 32 30 36 26 3 -3 3 1 0 10
-8 20 27 58 80 87 88 47 106 60 141 102 20 24 48 67 61 95 13 28 57 114 98
190 41 77 84 159 96 184 12 25 26 52 31 60 4 8 13 26 20 40 49 107 48 104 48
232 0 96 3 130 14 141 10 9 15 42 17 103 2 92 24 242 61 422 19 96 20 104 4
121 -15 16 -16 35 -10 157 4 77 13 156 20 178 11 30 14 150 14 575 0 527 -1
537 -22 581 -20 42 -21 58 -19 277 2 182 -2 250 -14 315 -10 49 -22 195 -30
358 -9 203 -17 285 -28 315 -11 28 -16 74 -17 153 0 86 -5 126 -20 169 -14 39
-20 83 -20 138 0 52 -5 88 -14 100 -8 13 -16 67 -20 150 -4 72 -14 166 -22
210 -8 44 -19 108 -24 143 -6 34 -17 74 -26 87 -13 19 -15 38 -10 79 9 67 -7
192 -40 313 -13 50 -29 138 -34 195 -11 131 -36 266 -62 343 -15 42 -25 113
-34 235 -8 104 -27 251 -47 360 -20 102 -45 250 -58 330 -12 80 -30 163 -40
185 -15 33 -19 72 -21 215 -3 148 -6 180 -21 203 -14 22 -18 53 -21 165 -2
103 -7 144 -18 162 -13 20 -17 77 -23 305 -5 213 -10 287 -21 309 -8 16 -14
49 -14 73 0 24 -9 61 -20 83 -11 22 -20 53 -20 71 0 17 -8 43 -19 57 -10 15
-21 46 -24 69 -3 23 -14 54 -25 68 -11 14 -18 34 -15 44 3 11 -7 49 -21 84
-14 36 -35 105 -47 154 -11 48 -27 102 -34 119 -8 17 -21 60 -30 96 -8 35 -28
98 -45 138 -17 41 -42 113 -57 160 -14 47 -36 98 -48 115 -13 16 -50 96 -84
176 -44 105 -71 155 -96 179 -19 19 -35 42 -35 51 0 21 -197 312 -284 419 -36
44 -73 94 -81 111 -9 16 -46 62 -82 102 -36 39 -76 88 -88 108 -52 81 -162
169 -214 169 -11 0 -24 6 -28 14 -14 23 -116 84 -163 96 -49 13 -128 47 -200
87 -85 46 -225 110 -280 128 -30 10 -66 23 -80 31 -14 7 -34 16 -45 19 -11 4
-90 31 -175 60 -85 30 -249 91 -365 138 -115 46 -264 103 -330 127 -66 24
-127 49 -136 57 -8 7 -31 13 -51 13 -20 0 -46 9 -61 20 -14 11 -32 20 -40 20
-8 0 -31 11 -51 25 -20 14 -51 25 -67 25 -20 0 -46 12 -72 33 -23 18 -91 53
-152 77 -60 24 -121 51 -135 60 -45 31 -136 70 -163 70 -14 0 -39 11 -55 25
-17 14 -38 25 -48 25 -11 0 -30 9 -44 20 -14 11 -32 20 -40 20 -8 0 -35 14
-60 30 -25 16 -49 30 -53 30 -5 0 -23 7 -40 15 -69 31 -139 55 -164 55 -26 0
-129 45 -139 61 -3 5 -19 9 -36 9 -17 0 -70 16 -118 35 -48 19 -110 39 -136
45 -27 7 -58 16 -69 21 -11 5 -49 18 -85 29 -36 11 -102 41 -148 67 -91 51
-111 76 -157 194 l-25 63 25 26 c16 16 37 27 59 28 19 1 60 11 92 22 31 11 82
20 112 20 29 0 69 7 88 16 42 20 241 209 299 284 24 31 60 85 80 121 20 35 49
82 65 104 16 22 32 56 35 75 3 19 15 52 26 73 18 34 20 54 18 200 -2 152 -1
167 25 247 30 92 30 138 0 222 -8 24 -19 88 -24 143 -6 65 -16 113 -29 139
-16 31 -19 50 -14 100 4 52 -3 93 -47 271 -36 148 -61 228 -84 270 -18 33 -36
76 -40 96 -3 21 -13 42 -21 49 -8 7 -40 59 -70 116 -31 57 -70 123 -88 146
-18 24 -38 55 -46 70 -8 15 -45 55 -84 90 -130 116 -148 137 -204 235 -31 54
-67 117 -80 141 -27 46 -37 55 -24 20 10 -25 99 -197 111 -213 4 -5 10 -19 14
-30 5 -16 2 -15 -14 5 -11 14 -20 28 -20 33 0 4 -4 7 -9 7 -6 0 -7 -15 -4 -33
6 -40 -22 -79 -78 -107 -42 -22 -44 -27 -29 -80 8 -27 7 -38 -5 -49 -13 -13
-17 -12 -37 6 -13 12 -45 31 -72 43 -27 11 -82 41 -121 65 -51 32 -82 45 -108
45 -40 0 -171 29 -284 62 -52 15 -73 26 -73 37 0 32 18 46 54 43 47 -4 108 30
141 80 30 45 30 50 7 71 -23 21 -27 21 -47 1 -22 -22 -31 -10 -16 23 10 23 9
29 -8 47 -25 24 -40 14 -50 -36 -4 -19 -14 -34 -23 -36 -14 -3 -15 4 -11 40 4
24 12 52 19 63 13 19 7 28 -71 105 l-85 84 -38 -37 c-31 -30 -45 -37 -77 -37
-43 0 -103 35 -130 76 -21 33 -38 30 -71 -13 -19 -25 -30 -55 -36 -95 -19
-139 -81 -263 -148 -293 -38 -17 -45 -17 -123 -2 -46 9 -115 31 -154 48 l-70
31 -54 -26 c-58 -27 -118 -80 -156 -137 -20 -30 -25 -54 -30 -140 -7 -110 -21
-161 -50 -178 -36 -19 -2 -23 54 -6 81 25 132 55 149 87 30 58 134 102 166 70
8 -8 5 -18 -11 -38 -11 -15 -21 -32 -21 -40 0 -7 -19 -20 -43 -29 -41 -16 -45
-20 -73 -97 l-29 -80 -88 -45 c-91 -45 -104 -64 -62 -87 30 -16 35 -29 21 -46
-6 -8 -18 -28 -26 -45 l-14 -30 -4 30 c-2 17 -7 34 -12 38 -12 14 -84 -37
-120 -85 -18 -24 -54 -63 -81 -88 -50 -47 -74 -100 -46 -100 8 0 41 15 73 33
51 28 59 37 62 65 3 27 9 33 40 42 20 5 47 17 60 25 l22 16 -17 -35 c-9 -20
-20 -36 -23 -36 -4 0 -28 -14 -55 -32 -50 -33 -75 -75 -75 -128 0 -33 -7 -36
-45 -18 -19 9 -28 9 -37 0 -9 -9 -16 -8 -30 5 -14 12 -21 13 -32 4 -21 -17
-56 -97 -56 -126 0 -39 26 -30 62 23 29 41 33 44 36 25 4 -25 21 -30 40 -11
21 21 26 -1 13 -65 -9 -48 -10 -69 -1 -89 10 -20 9 -31 -4 -56 -9 -17 -16 -49
-16 -72 0 -24 -4 -39 -10 -35 -11 7 -40 -46 -40 -72 0 -10 13 -44 29 -75 16
-32 27 -58 23 -58 -3 0 -21 14 -38 31 -20 20 -39 29 -48 26 -23 -9 -20 -59 5
-91 25 -32 18 -44 -15 -27 -13 7 -32 11 -42 9 -16 -3 -19 -11 -16 -57 4 -50 3
-53 -19 -49 -14 2 -29 14 -37 31 -7 15 -32 46 -55 68 -88 85 -85 83 -103 68
-10 -8 -14 -23 -12 -41 5 -32 6 -32 -30 -15 -15 7 -62 21 -105 31 -81 19 -107
13 -107 -21 0 -15 12 -15 53 2 9 4 17 3 17 -3 0 -5 -14 -15 -30 -22 -27 -11
-33 -10 -53 7 -12 11 -40 30 -61 42 -39 22 -55 18 -56 -16 0 -15 37 -51 62
-59 27 -8 22 -24 -9 -24 -20 0 -44 17 -92 66 -75 77 -94 77 -99 0 -2 -25 -6
-46 -11 -46 -14 0 -31 25 -31 47 0 27 -20 73 -32 73 -4 0 -8 -13 -8 -29 l0
-30 -37 16 c-48 19 -73 41 -73 64 0 34 -23 33 -57 -4 -36 -40 -49 -47 -39 -21
3 9 -2 28 -13 42 -10 15 -24 51 -31 80 -11 50 -13 52 -45 52 -25 0 -35 -5 -40
-21 -5 -14 -12 -18 -23 -13 -47 20 -89 33 -104 34 -10 0 -18 8 -18 18 0 9 -11
37 -25 62 -14 25 -34 64 -44 86 -11 23 -32 50 -48 62 -30 21 -63 97 -63 145 0
28 -66 148 -120 217 -44 56 -70 116 -70 160 0 42 -9 50 -30 25 -22 -27 -40
-18 -40 20 0 20 -9 53 -20 75 -11 22 -20 45 -20 53 0 8 -18 22 -39 32 -40 18
-85 66 -114 121 -11 21 -18 71 -22 150 -4 66 -14 140 -23 166 -15 44 -15 53 2
125 20 86 60 159 109 196 18 13 59 57 92 96 33 40 79 83 102 97 23 13 70 56
105 94 l63 70 56 0 c83 0 88 12 43 101 -31 62 -37 85 -38 141 -1 60 2 70 30
105 40 49 140 117 262 178 140 69 192 88 412 149 21 6 21 4 -5 -10 -82 -45
-105 -66 -105 -98 0 -23 -8 -38 -30 -56 -21 -17 -29 -31 -25 -41 7 -18 58 -43
121 -58 43 -11 63 -40 79 -111 4 -19 19 -49 32 -67 l25 -32 -22 -31 c-15 -21
-19 -36 -14 -48 4 -9 9 -48 11 -87 1 -38 5 -95 8 -126 l7 -55 -46 -38 c-54
-44 -138 -83 -210 -97 -28 -5 -89 -22 -134 -36 -83 -26 -84 -26 -118 -8 -27
14 -37 16 -47 6 -9 -9 -6 -22 15 -59 22 -39 33 -49 70 -59 23 -6 62 -12 86
-12 46 -1 52 -12 26 -49 -9 -13 -13 -26 -10 -30 16 -15 238 10 363 41 92 23
93 23 112 4 26 -27 54 -16 45 18 -4 15 -2 25 5 25 6 0 11 -9 11 -20 0 -37 50
-14 105 47 28 31 87 92 131 135 64 61 83 87 89 115 3 20 22 55 41 78 19 23 34
49 34 57 0 7 5 19 12 26 20 20 -23 56 -56 48 -21 -5 -26 -12 -26 -39 l-1 -32
-14 34 c-21 48 -19 73 15 153 17 38 30 83 30 98 0 16 -13 64 -30 107 -19 49
-30 96 -30 128 0 49 -2 52 -35 68 -19 9 -35 21 -35 25 0 5 30 19 66 31 96 31
166 69 162 87 -10 51 -212 63 -383 24 -113 -26 -274 -52 -289 -47 -11 4 59 21
239 58 121 25 361 37 421 20 27 -7 64 -32 105 -70 58 -53 66 -65 88 -136 13
-43 30 -121 37 -174 16 -121 41 -259 49 -271 8 -14 39 -12 53 2 17 17 15 54
-8 122 -21 64 -27 152 -10 141 20 -13 60 -85 60 -108 0 -14 9 -36 20 -50 11
-14 20 -30 20 -36 0 -6 4 -11 8 -11 5 0 6 26 4 59 -5 66 9 101 39 101 10 0 59
-22 107 -49 99 -56 142 -71 142 -49 0 15 -43 59 -74 75 -15 9 -20 24 -23 87
-2 42 0 76 3 76 4 0 30 -21 58 -47 29 -27 62 -55 74 -63 13 -8 22 -25 22 -39
0 -14 11 -55 25 -92 l26 -67 91 -51 c91 -53 148 -73 148 -53 0 6 -36 51 -79
101 -105 118 -117 137 -101 156 16 19 29 11 79 -53 82 -104 151 -162 253 -213
95 -48 147 -64 120 -37 -23 23 -12 31 11 10 49 -46 142 -54 268 -22 103 26
149 49 149 72 0 22 2 22 -72 -3 -42 -14 -73 -18 -99 -14 l-39 7 50 39 c27 21
54 48 60 59 6 11 15 20 21 20 6 0 8 -4 4 -9 -3 -6 3 -15 14 -21 18 -9 23 -5
46 45 15 30 35 60 45 65 16 9 22 5 35 -20 8 -16 19 -30 23 -30 4 0 31 -23 60
-52 39 -38 55 -49 64 -40 15 15 -1 34 -49 56 -40 18 -64 48 -102 133 l-24 52
20 48 c10 26 28 52 39 57 18 8 44 48 44 68 0 5 11 25 23 46 13 20 30 55 37 77
16 51 87 195 107 217 17 19 12 58 -11 80 -7 8 -16 24 -20 35 -13 40 -66 42
-66 2 0 -10 -5 -19 -10 -19 -6 0 -19 -20 -30 -44 -10 -24 -23 -47 -29 -51 -6
-3 -25 -34 -42 -68 -17 -34 -41 -75 -53 -92 -13 -16 -30 -43 -39 -60 -8 -16
-27 -43 -41 -58 -14 -15 -29 -38 -32 -51 -3 -13 -13 -27 -22 -30 -10 -3 -22
-9 -29 -12 -7 -3 -20 14 -33 43 -24 54 -47 83 -66 83 -24 0 -74 -54 -80 -88
-6 -28 -2 -37 31 -68 36 -34 37 -35 20 -54 -11 -12 -31 -20 -50 -20 -18 0 -49
-7 -68 -15 -20 -8 -56 -15 -79 -15 -24 0 -58 -4 -75 -9 -34 -10 -71 -3 -150
26 -39 14 -43 19 -43 50 0 31 -2 33 -20 23 -22 -12 -40 -6 -40 13 0 18 57 47
91 47 35 0 36 -6 8 -36 -20 -21 -20 -24 -5 -40 16 -15 19 -15 40 5 22 21 27
21 67 11 24 -7 65 -23 91 -36 56 -28 82 -31 123 -15 27 11 29 14 13 25 -24 17
-23 24 7 48 33 26 32 37 -6 50 -25 9 -29 14 -24 32 17 50 15 85 -4 144 -12 34
-21 72 -21 85 0 31 -30 59 -50 47 -15 -9 -7 -33 32 -92 19 -28 25 -88 8 -88
-5 0 -10 9 -10 20 0 10 -9 24 -19 30 -16 8 -20 6 -23 -12 -2 -12 -14 -28 -27
-35 -15 -7 -31 -29 -41 -55 -12 -35 -21 -44 -43 -46 -15 -2 -27 1 -27 7 0 6
-19 16 -43 22 -53 13 -77 48 -77 113 0 51 26 125 49 143 21 15 8 26 -31 26
-28 0 -30 2 -14 11 10 6 40 27 66 47 87 68 170 98 221 80 81 -28 168 -136 169
-209 1 -25 13 -54 65 -152 10 -19 24 -46 31 -60 16 -32 37 -45 59 -36 20 7 18
53 -10 171 -23 102 -27 125 -19 125 10 0 44 -41 44 -53 0 -6 3 -8 6 -4 8 8
-15 77 -26 77 -4 0 -6 8 -3 19 5 19 -33 64 -47 56 -4 -2 -31 23 -61 57 -73 84
-138 149 -174 174 -16 12 -27 25 -23 29 13 14 153 35 230 35 42 0 80 5 83 10
3 6 30 11 58 11 32 1 40 4 22 6 -16 2 -51 11 -76 19 -32 10 -54 12 -71 5 -13
-5 -61 -9 -105 -10 l-81 -1 -27 36 c-15 19 -44 52 -65 72 -21 20 -49 62 -64
92 -14 30 -48 85 -76 122 -57 76 -412 425 -450 442 -13 6 -34 20 -46 31 -110
102 -300 230 -356 242 -16 3 -28 8 -28 12 0 11 -57 41 -78 41 -11 0 -22 6 -25
14 -3 8 -21 19 -39 25 -18 6 -98 45 -178 86 -80 41 -157 75 -172 75 -14 0 -60
18 -102 41 -71 38 -81 41 -173 44 -69 3 -108 9 -133 22 -30 15 -66 18 -255 21
-121 2 -223 1 -226 -3z m946 -216 c39 -20 120 -57 181 -82 61 -25 126 -55 145
-66 19 -12 44 -21 57 -21 12 0 22 -4 22 -10 0 -5 7 -10 15 -10 8 0 15 -4 15
-10 0 -5 6 -10 13 -10 7 0 42 -20 79 -45 37 -25 77 -45 88 -45 33 0 60 -19 60
-41 0 -16 3 -18 19 -9 16 8 25 3 56 -33 20 -23 64 -66 98 -95 243 -209 426
-396 491 -502 18 -30 59 -93 91 -140 l57 -85 -68 -8 c-54 -6 -72 -4 -92 9 -17
11 -35 14 -61 9 -20 -3 -70 -10 -111 -14 -139 -16 -174 -22 -220 -37 -63 -21
-119 -62 -127 -93 -6 -28 -31 -61 -45 -61 -4 0 -8 16 -8 35 0 41 -3 42 -38 14
-24 -18 -28 -30 -32 -92 l-5 -72 -42 -23 c-41 -22 -189 -68 -318 -98 -74 -17
-108 -17 -251 -2 -108 11 -114 13 -114 34 0 30 -5 32 -90 44 -65 9 -84 8 -179
-16 -58 -14 -142 -28 -186 -31 -57 -3 -88 -11 -108 -25 -15 -10 -62 -28 -104
-39 -68 -18 -158 -56 -187 -80 -6 -5 -53 -30 -105 -56 -90 -46 -124 -73 -108
-89 13 -13 151 50 187 84 25 25 53 39 105 53 78 21 135 24 135 8 0 -11 -60
-39 -85 -39 -24 0 -217 -84 -349 -151 -76 -39 -126 -59 -139 -55 -14 3 -32 -5
-55 -25 -19 -17 -67 -47 -108 -67 -85 -42 -90 -55 -51 -132 19 -38 33 -50 87
-76 58 -28 64 -34 76 -75 18 -60 19 -59 -24 -38 -43 22 -87 14 -157 -26 -22
-13 -58 -27 -80 -31 -22 -4 -54 -18 -71 -31 -35 -26 -54 -30 -54 -10 0 18 105
115 158 147 48 27 50 39 22 101 -33 70 -36 74 -61 77 -19 2 -48 -22 -139 -113
-63 -63 -117 -115 -120 -115 -4 0 -15 6 -25 14 -17 12 -18 17 -6 39 9 16 11
39 6 66 -7 41 -8 42 -38 35 -51 -11 -95 -36 -100 -56 -5 -18 -6 -18 -39 2
l-33 20 -242 -243 c-134 -133 -243 -246 -243 -250 0 -5 21 -6 48 -2 l47 6 23
-46 c19 -39 22 -61 22 -158 l-1 -112 -54 -58 -54 -59 -71 12 c-96 16 -108 5
-55 -50 l39 -40 -27 0 c-22 0 -27 -4 -27 -26 0 -40 -17 -63 -41 -57 -14 4 -19
12 -16 24 4 13 -2 19 -22 21 -34 4 -42 50 -14 82 48 53 58 81 64 171 3 50 13
112 22 138 l16 48 -37 -30 c-20 -16 -138 -131 -262 -255 -124 -124 -229 -226
-233 -226 -5 0 113 126 262 280 l271 280 0 88 c0 70 13 152 23 152 6 0 114
-47 125 -53 16 -10 6 -27 -15 -27 -23 0 -63 -40 -63 -62 0 -10 3 -18 8 -18 4
0 106 99 227 220 162 162 214 220 199 220 -47 0 -228 -157 -241 -208 -19 -81
-103 -29 -103 64 0 25 -9 52 -25 76 -14 20 -25 40 -25 44 0 5 12 21 28 37 26
29 26 30 5 24 -22 -5 -23 -2 -23 54 0 35 -7 73 -15 90 -17 32 -13 77 12 137
17 42 12 50 -39 58 -39 7 -78 33 -78 54 0 5 18 21 41 35 52 33 78 90 79 168 0
37 -4 57 -12 57 -24 0 -58 43 -58 74 0 34 -43 86 -72 86 -23 0 -38 37 -38 91
0 55 -15 79 -48 79 -35 0 -49 10 -61 42 -8 22 -6 38 14 83 14 31 25 62 25 69
0 8 25 45 55 82 30 38 76 97 102 130 41 53 63 69 153 117 58 30 131 63 164 72
36 11 60 24 63 34 5 18 172 115 217 125 28 7 104 47 356 188 74 42 176 89 225
106 50 17 131 50 180 75 105 52 252 103 325 113 28 4 57 13 65 20 9 10 42 14
102 15 60 1 102 7 130 20 36 15 100 28 218 43 17 2 104 3 195 2 l165 -1 70
-36z m-2833 -1379 c-1 -19 -12 -52 -22 -73 -11 -21 -20 -43 -20 -50 -1 -7 -16
-30 -35 -52 -25 -30 -37 -37 -45 -29 -9 9 -9 17 -1 32 6 11 11 41 11 67 0 29
9 64 25 96 24 46 29 50 58 47 30 -3 32 -5 29 -38z m3788 -121 c-28 -29 -46
-40 -62 -37 -20 3 -16 8 32 40 71 49 79 48 30 -3z m687 -47 c25 -16 83 -182
63 -182 -5 0 -10 9 -10 20 0 11 -4 28 -9 38 -5 9 -15 31 -22 47 -7 17 -24 42
-38 58 -24 26 -14 38 16 19z m-795 -62 c-6 -11 -12 -34 -12 -50 0 -18 -4 -29
-10 -25 -13 8 -13 71 1 97 8 15 14 17 22 9 9 -9 8 -17 -1 -31z m302 -25 c-16
-25 -34 -33 -34 -16 0 8 38 41 47 41 2 0 -4 -11 -13 -25z m346 -340 c14 -16
10 -18 -14 -9 -9 3 -16 10 -16 15 0 14 16 11 30 -6z m-1777 -882 c-7 -3 -13
-16 -13 -29 0 -13 -4 -24 -10 -24 -5 0 -10 5 -10 11 0 7 -14 8 -41 4 -29 -5
-40 -4 -35 4 4 6 13 11 19 11 7 0 30 9 52 20 21 11 41 17 44 13 3 -3 0 -8 -6
-10z m2009 -10 c23 -21 23 -28 -6 -66 -19 -24 -26 -47 -28 -92 -3 -58 -4 -59
-38 -68 -30 -8 -110 7 -110 20 0 12 53 83 84 112 20 19 36 43 36 54 0 25 18
57 32 57 6 0 20 -7 30 -17z m-718 -319 c21 -21 20 -33 -5 -60 -17 -18 -28 -22
-53 -17 -17 3 -37 10 -43 16 -19 14 -16 54 5 66 26 16 79 13 96 -5z m686 -144
c0 -5 -21 -21 -47 -34 -67 -34 -143 -151 -143 -219 0 -34 -1 -35 -70 -57 -45
-15 -99 -43 -148 -78 -42 -30 -99 -65 -127 -78 -31 -13 -57 -33 -67 -52 -11
-17 -34 -36 -58 -46 -38 -15 -68 -55 -56 -75 8 -12 198 -3 251 12 143 42 176
49 245 54 61 5 81 11 110 33 60 47 111 66 235 89 66 13 136 32 157 42 20 10
57 19 81 19 l44 0 13 -60 c15 -72 11 -98 -33 -194 -27 -56 -45 -81 -82 -110
-26 -20 -55 -36 -64 -36 -9 0 -39 -11 -67 -24 -28 -13 -71 -27 -95 -31 -24 -4
-63 -20 -86 -36 -82 -58 -286 -149 -368 -164 -129 -25 -195 -45 -249 -75 -28
-15 -66 -31 -83 -35 -18 -4 -33 -11 -33 -16 0 -4 -13 -15 -30 -24 -57 -30 -30
-98 43 -109 43 -7 44 -8 55 -57 18 -79 16 -89 -17 -89 -37 0 -53 21 -50 62 6
66 -24 78 -42 18 -11 -37 -10 -43 10 -70 17 -24 20 -38 15 -68 -9 -52 -11 -53
-47 -33 -27 15 -32 24 -35 62 -5 65 -38 101 -124 137 -40 17 -90 33 -110 37
-45 8 -57 22 -65 69 l-5 35 30 -11 c38 -15 46 -8 37 32 -5 22 -17 36 -46 51
-22 11 -42 25 -44 32 -2 7 -9 31 -15 55 -8 31 -16 42 -30 42 -16 0 -20 -7 -20
-34 0 -19 -4 -38 -10 -41 -6 -4 -10 8 -10 28 0 23 8 41 26 58 14 13 44 50 65
81 21 31 48 59 59 63 11 4 20 15 20 26 0 12 13 27 31 37 18 9 52 31 78 49 107
74 130 85 161 75 21 -8 33 -7 47 3 17 13 17 14 1 20 -10 4 -18 17 -18 30 0 15
-8 26 -20 30 -44 14 -103 -7 -196 -71 -97 -66 -112 -72 -132 -52 -17 17 -15
41 6 54 10 7 24 30 32 53 9 27 28 53 52 72 31 25 38 37 38 65 0 28 5 36 28 45
15 6 45 30 68 55 34 36 47 44 77 44 47 0 62 23 76 119 13 83 16 91 37 91 13 0
13 -4 -1 -30 -20 -38 -19 -66 3 -76 25 -11 35 -7 91 30 56 38 110 52 233 62
101 7 143 19 186 51 67 50 117 73 160 73 23 0 42 -4 42 -10z m-4056 -122 c2
-7 13 -43 24 -80 17 -55 20 -82 15 -156 -6 -89 -6 -91 24 -129 17 -21 37 -54
46 -73 8 -19 51 -84 95 -145 92 -125 90 -138 -18 -89 -43 19 -65 36 -80 61
-19 32 -24 35 -52 29 -22 -4 -37 -1 -50 10 -24 23 -23 39 7 62 35 27 31 42
-19 79 -36 26 -47 42 -61 91 -14 45 -25 64 -52 82 l-33 23 33 61 c19 34 37 82
41 108 6 38 13 50 34 62 35 18 42 19 46 4z m-944 -73 c-24 -25 -49 -45 -54
-45 -6 0 12 22 39 50 27 27 51 47 54 45 3 -3 -15 -26 -39 -50z m496 -463 c-17
-16 -18 -16 -5 5 7 12 15 20 18 17 3 -2 -3 -12 -13 -22z m3151 -614 c-3 -7 -5
-2 -5 12 0 14 2 19 5 13 2 -7 2 -19 0 -25z m1048 -193 c22 -8 50 -15 63 -15
12 0 22 -2 22 -4 0 -15 -100 -96 -125 -102 -32 -7 -54 -29 -55 -56 0 -30 -18
-29 -92 3 -55 25 -87 33 -130 33 -38 -1 -59 4 -62 12 -6 15 22 34 49 34 8 0
30 20 47 45 36 51 72 60 104 24 17 -19 18 -21 1 -30 -10 -6 -17 -22 -17 -39 0
-25 4 -30 25 -30 30 0 65 50 65 92 0 46 37 57 105 33z m-1374 -56 c7 -14 6
-19 -4 -19 -8 0 -19 11 -25 25 -9 20 -9 23 4 18 8 -3 19 -14 25 -24z m-2695
-611 c8 -12 -84 39 -106 59 -8 8 11 0 42 -17 32 -17 61 -36 64 -42z m522 -141
c50 -51 68 -63 87 -59 40 7 91 -33 134 -106 60 -103 97 -143 169 -187 60 -36
72 -50 134 -149 38 -60 88 -132 111 -159 28 -33 42 -61 43 -81 2 -43 61 -166
80 -166 8 0 17 -6 20 -14 3 -7 40 -39 84 -70 43 -31 96 -75 117 -99 22 -23 71
-58 108 -77 73 -37 179 -112 192 -135 11 -18 146 -71 218 -84 32 -6 70 -19 83
-28 77 -55 130 -67 280 -64 127 3 135 2 188 -24 51 -25 134 -109 134 -136 0
-5 13 -9 30 -9 l29 0 3 83 3 82 98 3 97 3 0 -43 1 -43 21 29 c35 47 72 56 228
56 l140 0 0 -41 0 -41 26 31 c30 35 82 54 139 49 l40 -3 1 -50 c1 -102 1 -102
-77 -107 -57 -3 -73 -8 -93 -28 -14 -14 -28 -36 -31 -50 -6 -24 -3 -25 37 -26
24 -1 67 -5 95 -9 48 -7 56 -5 87 19 63 47 115 65 160 52 59 -17 64 -33 39
-117 -21 -72 -21 -73 -2 -97 27 -35 33 -83 15 -125 -15 -37 -66 -77 -99 -77
-9 0 -54 35 -100 78 -171 163 -195 181 -251 188 -17 2 -66 11 -108 21 l-78 16
0 78 0 78 -52 -5 c-29 -3 -63 -7 -75 -10 -25 -5 -60 -61 -46 -75 4 -4 35 -9
68 -11 58 -3 59 -4 30 -16 -16 -6 -37 -16 -46 -21 -8 -5 -27 -7 -42 -4 -16 3
-27 1 -27 -5 0 -6 -17 -16 -38 -22 -56 -15 -119 -64 -154 -119 -26 -42 -30
-59 -31 -130 -1 -44 1 -81 5 -81 4 0 11 -12 14 -27 9 -34 24 -59 93 -154 29
-41 56 -81 59 -89 3 -8 14 -21 24 -28 10 -7 18 -19 18 -26 0 -8 7 -19 15 -26
8 -7 15 -20 15 -30 0 -10 7 -20 15 -24 20 -7 19 -32 -1 -40 -9 -3 -37 -6 -63
-6 -40 0 -52 5 -77 31 -16 17 -73 59 -126 95 -54 35 -98 68 -98 73 0 4 -11 6
-25 3 -48 -9 -111 26 -173 94 -38 41 -67 64 -81 64 -31 0 -88 25 -125 56 -84
68 -131 104 -138 104 -5 0 -17 8 -27 18 -26 22 -40 33 -75 56 -16 10 -53 43
-82 72 -29 30 -59 54 -68 54 -9 0 -16 4 -16 8 0 4 -15 16 -32 27 -18 10 -37
23 -43 28 -5 4 -25 18 -44 30 -40 25 -61 39 -127 86 -26 18 -57 37 -68 42 -21
9 -42 25 -148 107 -30 23 -100 66 -156 95 -136 71 -263 184 -533 473 -30 32
-74 86 -96 119 -22 34 -48 67 -57 74 -9 7 -16 17 -16 22 0 4 -20 37 -45 73
-25 37 -45 68 -45 71 0 3 -39 65 -87 138 -96 147 -183 309 -183 342 0 11 -4
25 -9 31 -5 5 -11 33 -13 63 -2 43 1 56 15 65 23 15 49 -2 62 -41 16 -48 33
-62 104 -84 55 -17 80 -19 153 -14 125 10 128 19 42 106 -37 38 -62 69 -53 69
8 0 43 -29 77 -63z m4152 -1040 c77 -32 171 -88 178 -107 3 -8 14 -26 24 -39
10 -13 18 -32 18 -42 0 -11 4 -19 9 -19 5 0 54 -92 110 -204 56 -112 109 -207
117 -210 20 -8 54 11 54 30 0 33 -44 142 -120 295 -73 146 -79 164 -66 178 17
16 30 11 136 -48 19 -10 73 -37 120 -58 138 -64 240 -156 448 -400 28 -34 52
-66 52 -73 0 -6 7 -13 15 -16 8 -4 15 -16 16 -28 0 -21 5 -30 61 -114 34 -51
70 -76 98 -67 35 11 23 47 -37 118 -18 20 -33 43 -33 51 0 7 -7 19 -16 27 -17
14 -49 80 -58 119 -3 14 -35 59 -70 100 -69 79 -126 174 -126 209 0 23 19 36
72 45 31 6 50 0 110 -30 161 -80 299 -189 366 -287 34 -51 93 -86 145 -87 20
0 44 -15 81 -50 62 -59 108 -80 175 -80 44 0 52 -4 85 -40 19 -22 52 -72 72
-112 39 -77 38 -69 15 -216 -20 -126 -63 -163 -207 -171 l-93 -6 -52 -65 c-57
-72 -66 -80 -91 -80 -29 0 -55 34 -62 83 -4 25 -16 55 -26 68 -11 12 -20 27
-20 34 0 6 -13 32 -30 58 -22 35 -36 47 -54 47 -31 0 -62 -38 -80 -100 -8 -26
-21 -61 -30 -78 -9 -17 -16 -45 -16 -61 0 -17 -14 -65 -31 -107 -23 -59 -31
-97 -34 -163 -2 -47 -11 -108 -19 -136 -9 -27 -16 -69 -16 -93 0 -42 1 -44 48
-64 26 -12 74 -24 107 -26 50 -3 66 0 95 20 47 31 79 98 88 187 6 64 11 77 33
93 53 40 87 -13 58 -89 -7 -20 -7 -56 2 -128 10 -80 9 -110 -1 -150 -7 -27
-17 -140 -21 -250 -23 -562 -25 -581 -79 -795 -11 -41 -26 -119 -35 -172 -10
-65 -25 -115 -45 -153 -17 -31 -30 -69 -30 -84 0 -29 -41 -114 -72 -148 -12
-12 -46 -31 -78 -41 -48 -17 -60 -18 -81 -7 -29 16 -39 11 -39 -18 0 -23 84
-107 108 -107 17 0 112 -89 112 -105 0 -6 9 -20 20 -30 11 -10 20 -24 20 -32
0 -24 -30 -14 -73 26 -23 21 -56 45 -73 54 -17 9 -36 23 -43 31 -8 9 -22 16
-31 16 -10 0 -20 5 -22 11 -2 6 -24 12 -48 14 -25 2 -72 15 -105 30 -141 63
-203 69 -254 22 -14 -13 -56 -45 -93 -71 -37 -26 -79 -61 -93 -79 -63 -78
-100 -136 -122 -191 -12 -33 -29 -63 -35 -67 -9 -6 -12 -53 -10 -184 2 -97 0
-185 -3 -196 -8 -25 -45 -25 -73 1 -30 28 -75 36 -95 16 -17 -18 -117 -23
-117 -6 0 6 -7 10 -15 10 -8 0 -22 14 -30 30 -14 28 -19 30 -51 24 -31 -6 -80
8 -169 47 -35 15 -217 41 -303 42 -89 2 -115 16 -87 47 7 8 17 31 23 50 8 30
4 45 -24 105 -20 44 -33 62 -33 48 -1 -12 -5 -25 -11 -28 -5 -3 -10 -28 -10
-56 0 -32 -8 -65 -24 -96 -14 -27 -30 -68 -37 -93 -6 -25 -13 -51 -15 -58 -2
-7 -14 -12 -26 -10 -22 3 -23 7 -19 68 2 35 10 85 17 110 8 25 14 56 14 70 0
13 11 65 24 115 14 49 34 131 45 180 12 50 23 99 26 110 3 11 9 21 15 23 5 2
10 23 10 46 0 51 -71 191 -125 246 -19 20 -35 40 -35 45 0 4 -24 34 -52 65
-97 104 -163 184 -175 212 -7 16 -19 31 -28 34 -8 3 -15 12 -15 19 0 7 -15 32
-34 56 -18 24 -37 55 -41 69 -4 14 -12 31 -18 39 -6 7 -16 21 -22 31 -22 37
-87 120 -95 120 -16 0 -208 336 -219 385 -34 147 -40 234 -25 369 11 92 14
211 12 397 l-3 267 -57 -6 c-67 -6 -97 9 -122 59 -16 32 -16 33 12 63 16 17
35 49 44 71 9 22 31 79 49 128 37 96 51 105 110 70 23 -13 31 -15 41 -5 16 16
-5 75 -38 110 -22 24 -24 25 -61 11 -51 -20 -130 -136 -162 -239 -41 -132 -65
-139 -137 -43 -80 110 -113 202 -94 267 18 61 22 67 74 103 58 40 113 49 230
36 109 -12 209 -50 284 -107 29 -23 67 -51 84 -63 186 -137 392 -417 489 -669
9 -23 29 -50 44 -60 l28 -18 26 31 c48 57 120 188 162 294 23 57 45 106 48
109 7 5 58 110 71 145 18 49 30 93 30 108 0 9 5 17 10 17 6 0 10 14 10 32 0
17 4 45 9 62 10 32 35 208 53 371 11 98 -7 318 -39 461 -18 85 -12 102 49 133
53 27 109 23 198 -12z m-3045 -857 c27 -30 10 -77 -25 -72 -34 5 -50 20 -50
46 0 46 44 61 75 26z m5168 -62 c40 -21 50 -39 69 -126 22 -100 23 -174 3
-252 -25 -97 -35 -181 -45 -360 -18 -348 -112 -938 -206 -1305 -38 -149 -108
-337 -168 -455 -29 -58 -59 -123 -66 -145 -35 -109 -124 -323 -142 -342 -34
-36 -38 -27 -17 35 11 31 28 91 39 132 10 41 35 112 55 158 20 46 35 86 32 88
-2 3 -80 -74 -173 -171 -151 -157 -194 -194 -194 -166 0 5 75 83 166 173 218
214 254 258 254 309 0 24 15 70 39 122 54 115 80 204 145 487 86 379 101 473
87 542 -12 60 -8 94 18 143 9 18 16 57 16 100 1 39 5 111 10 162 6 67 4 105
-5 138 -12 43 -11 47 9 69 23 24 44 83 35 98 -3 5 -21 6 -40 2 -30 -5 -34 -4
-34 15 0 40 28 89 60 106 47 24 60 66 60 197 0 102 -6 143 -35 236 -8 25 -3
27 28 10z m-4811 -382 c4 -6 8 -21 8 -33 0 -18 -6 -23 -25 -23 -29 0 -40 19
-31 55 5 18 11 23 24 18 9 -4 20 -11 24 -17z m403 -96 c17 -19 18 -22 2 -55
-9 -19 -21 -35 -26 -35 -5 0 -16 -6 -24 -14 -11 -12 -19 -12 -38 -2 -39 19
-36 51 8 91 44 40 53 42 78 15z m3336 -2736 c26 -13 30 -20 27 -52 -3 -36 -4
-37 -43 -37 -33 0 -43 5 -62 34 -40 59 6 93 78 55z m445 -92 c18 -12 26 -59
33 -192 4 -74 12 -135 20 -149 10 -19 11 -39 1 -105 -6 -44 -17 -103 -25 -131
-8 -27 -16 -63 -20 -80 -20 -110 -47 -165 -79 -165 -13 0 -41 -6 -62 -13 -23
-7 -69 -11 -112 -9 -67 3 -73 5 -70 24 2 16 17 26 59 39 31 10 70 31 86 46 27
26 72 103 107 183 22 51 37 160 27 195 -4 17 -3 48 2 70 5 22 7 92 4 155 -5
138 -2 153 29 132z m-1096 -535 c0 -2 -15 -14 -32 -27 l-33 -23 24 26 c21 23
41 35 41 24z m1209 -6737 c26 -40 -63 39 -139 123 l-65 72 94 -85 c52 -47 101
-97 110 -110z m-6647 -85 c102 -34 208 -104 208 -137 0 -10 11 -25 24 -33 13
-9 31 -31 40 -49 9 -19 29 -44 45 -57 16 -13 27 -27 25 -31 -3 -4 0 -8 6 -8
14 0 40 -25 40 -39 0 -6 6 -11 14 -11 8 0 18 -10 22 -22 4 -12 21 -36 38 -53
17 -17 46 -49 65 -70 76 -90 652 -679 834 -852 47 -46 91 -83 97 -83 6 0 35
-22 63 -48 29 -27 107 -92 173 -145 67 -53 132 -112 143 -131 42 -67 72 -176
81 -293 5 -61 13 -121 19 -132 6 -11 11 -40 11 -65 0 -25 5 -57 12 -71 9 -21
9 -31 0 -46 -17 -27 -15 -39 8 -39 18 0 20 -7 20 -69 0 -38 2 -84 5 -102 l5
-34 -14 30 c-17 34 -18 29 -20 -70 -1 -62 -3 -71 -23 -80 -22 -9 -23 -15 -23
-118 0 -101 -2 -109 -25 -132 -22 -22 -32 -25 -105 -25 l-80 0 0 94 0 94 -90
-32 -91 -31 3 -44 3 -45 55 -11 c30 -7 80 -21 110 -32 l55 -20 -56 -21 c-31
-11 -82 -28 -114 -37 -31 -10 -89 -30 -128 -46 -38 -16 -85 -29 -104 -29 -18
0 -56 -11 -83 -25 -27 -14 -57 -25 -66 -25 -10 0 -31 -5 -48 -10 -216 -71
-425 -120 -510 -120 -30 0 -58 -5 -61 -10 -3 -6 -28 -10 -56 -10 -29 0 -49 -5
-49 -11 0 -6 -10 -19 -22 -30 -25 -20 -71 -24 -130 -10 -33 8 -39 6 -53 -15
-15 -23 -19 -24 -163 -25 -81 0 -221 -6 -311 -12 -149 -11 -165 -15 -181 -35
-15 -18 -28 -22 -74 -22 -48 0 -56 3 -56 19 0 13 -10 20 -31 25 -51 10 -163 7
-199 -6 -28 -9 -35 -9 -46 7 -12 16 -46 27 -129 41 -16 3 -45 13 -64 21 -18 8
-61 17 -95 20 -33 3 -75 11 -93 19 -17 8 -48 14 -70 14 -21 0 -49 7 -62 16
l-23 17 27 21 c21 17 31 40 46 105 11 46 27 100 36 119 16 33 18 34 64 30 73
-7 77 -14 78 -133 1 -112 13 -155 43 -155 16 0 19 8 18 63 0 77 3 105 17 137
6 14 16 38 22 53 19 49 58 57 270 57 116 0 192 -4 196 -10 3 -6 27 -10 53 -10
26 0 90 -7 142 -15 94 -16 119 -15 173 7 26 10 27 12 11 29 -19 21 -58 35
-128 44 -65 9 -176 49 -252 91 l-61 34 -209 0 c-261 0 -376 12 -424 44 -19 13
-52 31 -72 41 -47 21 -141 119 -136 143 2 13 17 18 65 22 38 3 68 11 80 22 11
10 32 18 48 18 15 0 33 6 39 13 6 8 81 35 166 61 184 55 263 61 337 24 49 -25
75 -18 81 21 6 37 -23 67 -101 105 -74 36 -75 36 -118 20 -24 -8 -89 -18 -144
-21 -93 -5 -102 -7 -131 -35 -46 -43 -104 -56 -291 -63 -151 -6 -171 -5 -200
12 -94 54 -138 74 -184 84 -97 21 -144 101 -105 177 12 23 16 60 16 151 l0
120 38 10 c20 5 66 12 102 16 98 10 245 47 450 114 165 54 189 65 222 98 29
30 35 45 33 71 -5 64 -53 84 -80 33 -23 -45 -58 -67 -158 -100 -140 -46 -248
-71 -352 -80 -52 -5 -99 -13 -106 -16 -6 -4 -59 -9 -117 -10 -100 -3 -141 -11
-237 -47 -51 -20 -99 -14 -145 16 -49 32 -94 42 -132 27 -38 -14 -35 -38 5
-46 56 -12 107 -28 107 -34 0 -4 -19 -7 -42 -9 -24 -1 -98 -4 -165 -8 -114 -5
-123 -4 -142 15 -12 12 -30 21 -41 21 -12 0 -20 7 -20 17 0 9 -9 36 -20 59
-16 33 -21 62 -21 129 0 85 9 115 36 115 7 0 24 9 38 20 63 50 308 199 367
224 36 15 79 34 95 41 17 7 64 21 105 31 104 24 256 77 368 130 52 24 100 44
107 44 7 0 38 11 69 25 31 14 67 25 81 25 13 0 27 5 30 10 3 6 19 10 35 10 16
0 41 6 57 14 15 8 134 51 263 96 129 45 264 95 300 112 92 42 99 45 160 57 30
6 75 23 99 36 23 14 55 25 70 25 28 0 40 5 163 63 73 35 82 55 35 72 -22 7
-35 6 -59 -8 -16 -9 -35 -17 -42 -17 -7 0 -46 -14 -87 -31 -106 -45 -267 -87
-394 -104 -141 -19 -169 -19 -208 2 -38 20 -141 50 -213 62 -102 17 -188 80
-229 166 l-25 54 20 33 c11 18 22 52 26 76 4 26 14 48 25 55 11 7 19 16 19 22
0 5 28 17 63 25 50 12 69 13 97 3 19 -7 47 -12 61 -12 35 -1 41 -28 18 -77
-23 -48 -24 -64 -3 -64 18 0 58 40 97 100 16 23 37 45 48 47 10 3 19 9 19 14
0 14 17 11 35 -7 22 -22 48 -14 145 47 80 50 85 51 268 84 103 19 214 41 247
49 78 19 145 12 267 -29z m-1692 -2554 c15 -29 12 -49 -10 -68 -11 -10 -20
-27 -20 -39 0 -11 -7 -36 -16 -54 -15 -30 -15 -35 0 -66 15 -32 15 -34 -3 -34
-10 0 -28 8 -40 18 -18 15 -21 30 -23 113 -3 117 11 149 67 149 24 0 37 -6 45
-19z m173 -120 c26 -38 47 -74 47 -80 0 -6 14 -26 30 -44 59 -67 25 -94 -65
-51 -107 50 -158 169 -99 229 25 25 37 18 87 -54z m206 -360 c11 -7 12 -17 3
-53 -6 -23 -14 -63 -17 -87 -3 -25 -19 -73 -35 -108 -24 -52 -33 -63 -54 -63
-32 0 -66 43 -66 85 0 17 -9 58 -21 91 -11 32 -23 67 -26 76 -3 10 5 27 21 42
23 24 33 26 103 26 43 0 84 -4 92 -9z m-241 -174 c18 -49 16 -107 -4 -107 -41
0 -54 19 -54 80 0 56 2 60 23 60 17 0 26 -9 35 -33z"/>
<path d="M6585 19609 c-4 -6 -5 -13 -2 -16 7 -7 27 6 27 18 0 12 -17 12 -25
-2z"/>
<path d="M11610 11559 c-25 -6 -80 -16 -123 -25 -43 -8 -90 -19 -104 -25 -26
-10 -26 -10 -7 -29 19 -19 20 -19 80 0 34 10 99 24 145 30 99 14 126 25 108
46 -13 16 -33 16 -99 3z"/>
<path d="M11295 11473 c-39 -21 -145 -103 -166 -128 -9 -11 -40 -45 -68 -75
-28 -30 -51 -62 -51 -72 0 -9 -4 -19 -9 -22 -14 -9 -22 -123 -10 -153 11 -27
12 -26 33 37 11 36 32 83 45 105 40 64 51 86 51 100 0 14 80 105 92 105 5 0
40 19 78 42 67 39 69 42 54 60 -10 10 -18 18 -18 18 -1 -1 -14 -8 -31 -17z"/>
<path d="M10673 11413 c-13 -2 -23 -11 -23 -20 0 -16 49 -15 155 5 l50 9 -51
2 c-28 0 -64 3 -80 5 -16 2 -39 2 -51 -1z"/>
<path d="M10224 11244 c-7 -40 11 -72 21 -38 4 10 11 27 16 36 14 27 11 38
-11 38 -14 0 -21 -9 -26 -36z"/>
<path d="M3571 2314 c-20 -15 -23 -23 -19 -66 6 -60 33 -91 95 -108 31 -9 47
-20 54 -37 6 -15 16 -23 33 -23 24 0 60 26 54 39 -42 89 -67 127 -108 165 -53
50 -73 55 -109 30z"/>
<path d="M3155 2158 c-36 -10 -75 -67 -75 -110 0 -31 25 -94 42 -104 5 -3 18
3 29 15 28 29 43 26 78 -15 20 -26 35 -35 46 -30 10 3 15 12 12 19 -3 7 -13
42 -22 78 -19 70 -54 147 -70 152 -5 2 -23 0 -40 -5z"/>
<path d="M6958 710 c-15 -4 -40 -17 -55 -28 -48 -33 -126 -69 -201 -92 -66
-20 -84 -32 -64 -43 4 -3 52 3 107 12 79 13 108 22 137 44 20 15 52 31 72 34
34 5 36 8 36 44 0 22 -1 39 -2 38 -2 0 -15 -4 -30 -9z"/>
<path d="M6444 531 c-73 -18 -73 -41 0 -41 40 0 55 4 60 16 14 36 4 40 -60 25z"/>
<path d="M6200 459 c-40 -18 -175 -60 -408 -129 -91 -27 -93 -47 -3 -42 49 3
67 9 86 28 20 20 34 24 81 24 32 0 97 5 145 11 72 9 89 15 98 33 7 11 35 33
63 47 29 14 54 31 56 37 6 19 -67 13 -118 -9z"/>
<path d="M4738 422 c-15 -3 -18 -15 -18 -71 0 -66 10 -91 37 -91 22 0 32 35
26 97 -6 62 -13 73 -45 65z"/>
<path d="M10892 20498 c-19 -19 -14 -33 23 -74 29 -32 38 -36 45 -24 14 22 12
42 -6 68 -21 31 -48 44 -62 30z"/>
<path d="M11010 20189 c0 -43 3 -50 18 -47 13 2 18 15 20 51 3 42 1 47 -17 47
-18 0 -21 -6 -21 -51z"/>
<path d="M11062 20029 c-23 -9 -23 -12 -17 -72 3 -34 8 -113 10 -176 4 -132 8
-149 30 -131 12 10 15 45 15 189 0 97 -4 181 -8 187 -4 8 -15 8 -30 3z"/>
<path d="M10993 19585 c-18 -19 -33 -40 -33 -47 -1 -16 -25 -50 -37 -49 -4 1
-16 -2 -27 -5 -23 -7 -16 -51 14 -94 11 -15 20 -38 20 -50 0 -32 15 -54 57
-85 l38 -28 -34 36 c-18 19 -30 40 -26 46 3 6 11 8 17 5 7 -4 8 -2 4 4 -4 7
-14 12 -22 12 -8 0 -13 3 -12 8 1 4 -4 18 -11 31 -22 39 2 104 52 138 35 25
67 73 67 103 0 21 -36 8 -67 -25z"/>
<path d="M11005 19280 c10 -11 20 -20 23 -20 3 0 -3 9 -13 20 -10 11 -20 20
-23 20 -3 0 3 -9 13 -20z"/>
<path d="M10512 19133 c-10 -4 -4 -15 19 -39 38 -39 49 -42 49 -13 0 47 -28
68 -68 52z"/>
<path d="M7375 19051 c-93 -27 -125 -47 -123 -76 1 -14 14 -37 28 -50 l26 -25
90 31 c49 17 110 33 136 36 40 4 48 2 58 -16 11 -22 63 -30 75 -12 8 14 -38
93 -67 114 -22 16 -27 16 -58 3 -30 -12 -38 -12 -55 0 -23 17 -35 17 -110 -5z"/>
<path d="M10673 18975 c-3 -9 3 -25 13 -36 18 -21 18 -21 26 7 4 15 5 31 2 36
-9 13 -34 9 -41 -7z"/>
<path d="M5581 17614 c-79 -30 -97 -46 -147 -134 -21 -38 -47 -71 -56 -73 -24
-7 -23 -44 1 -57 26 -13 41 -13 46 3 9 23 129 143 176 176 47 33 154 71 202
71 15 0 27 4 27 8 0 40 -148 44 -249 6z"/>
<path d="M8916 17559 c-3 -17 -3 -35 0 -41 3 -5 9 -30 12 -56 6 -42 10 -47 35
-50 38 -5 43 18 17 73 -15 31 -20 54 -15 75 6 27 4 30 -18 30 -19 0 -26 -6
-31 -31z"/>
<path d="M5960 17545 c0 -26 -9 -48 -29 -74 -15 -20 -43 -62 -61 -94 -29 -51
-32 -67 -37 -158 -4 -97 7 -160 39 -222 13 -25 38 -4 39 32 1 18 3 20 6 8 3
-10 -1 -32 -8 -49 -11 -27 -10 -32 7 -45 10 -8 29 -12 42 -10 19 4 22 0 22
-25 0 -23 8 -34 45 -56 37 -22 44 -32 45 -58 0 -19 9 -39 23 -52 l23 -22 -1
70 c-1 79 -19 114 -75 142 -41 21 -45 44 -41 242 l3 149 40 58 c22 33 45 59
52 59 15 0 46 -32 46 -47 0 -6 14 -27 30 -48 19 -24 30 -49 30 -70 0 -39 26
-67 36 -40 4 9 4 53 0 98 -8 92 -16 104 -85 131 -55 21 -91 49 -112 84 -11 19
-25 28 -47 30 -31 3 -32 2 -32 -33z"/>
<path d="M5340 17499 c0 -17 4 -28 10 -24 6 3 10 17 10 31 0 13 -4 24 -10 24
-5 0 -10 -14 -10 -31z"/>
<path d="M5606 17171 c-4 -6 -2 -18 3 -28 5 -10 12 -26 15 -35 9 -28 26 -21
26 10 0 31 -33 71 -44 53z"/>
<path d="M6395 16941 c-6 -6 -32 -11 -60 -13 -42 -3 -50 -6 -50 -23 0 -14 10
-23 35 -31 38 -13 38 -13 28 -134 -2 -29 0 -35 16 -35 29 0 55 43 67 110 6 33
14 72 19 87 11 39 -28 66 -55 39z"/>
<path d="M6052 16290 c0 -14 2 -19 5 -12 2 6 2 18 0 25 -3 6 -5 1 -5 -13z"/>
<path d="M3431 5344 c0 -11 3 -14 6 -6 3 7 2 16 -1 19 -3 4 -6 -2 -5 -13z"/>
<path d="M3422 5250 c0 -14 2 -19 5 -12 2 6 2 18 0 25 -3 6 -5 1 -5 -13z"/>
</g>
</svg>
